# xmcd
#
# Track frame offsets:
#	150
#	17220
#	31989
#	48033
#	62942
#	82294
#	97898
#	114964
#	128934
#	144349
#	160059
#	175201
#	190980
#	204879
#	222686
#
# Disc length: 3115 seconds
#
# Revision: 1
# Processed by: cddbd v1.5.2PL0 Copyright (c) Steve Scherf et al.
# Submitted via: audiograbber 1.83.01
#
DISCID=d00c290f
DTITLE=Kovacs - Cheap Smell
DYEAR=2018
DGENRE=Pop/Rock
TTITLE0=Priceless
TTITLE1=Adickted
TTITLE2=It's The Weekend
TTITLE3=Freakshow
TTITLE4=Mama and Papa
TTITLE5=I Better Run
TTITLE6=Cheap Smell
TTITLE7=Oblivion
TTITLE8=Midnight Medicine
TTITLE9=Play Me
TTITLE10=Love Song
TTITLE11=Black Spider
TTITLE12=Foolish
TTITLE13=Skyscraping
TTITLE14=Final Song
EXTD=Release-Date: 17.08.2018\n\nMARO\n
EXTT0=
EXTT1=
EXTT2=
EXTT3=
EXTT4=
EXTT5=
EXTT6=
EXTT7=
EXTT8=
EXTT9=
EXTT10=
EXTT11=
EXTT12=
EXTT13=
EXTT14=
PLAYORDER=
